#!OML:ASF F:\VICON\USERDATA\INSTALL\Justin_Nancy\Justin_Nancy.ASF
:FULLY-SPECIFIED
:DEGREES
95
root 0.0666412 16.7444 6.86963 1.28536 5.82201 4.88791
lowerback 13.1053 2.27651 -4.32022
upperback 1.36532 2.4028 0.109603
thorax -6.0918 1.28647 2.11566
lowerneck -24.9661 -5.11016 -9.3183
upperneck 12.273 -5.58202 9.76053
head 8.41675 -2.06438 4.04554
rclavicle -6.06293e-015 2.78299e-015
rhumerus -44.9332 5.65744 -92.1429
rradius 118.651
rwrist -16.1256
rhand -8.78475 21.6695
rfingers 7.12502
rthumb 17.1536 -7.59334
lclavicle -6.06293e-015 2.78299e-015
lhumerus -45.3457 -14.1083 93.993
lradius 119.274
lwrist 30.4316
lhand -22.1586 12.569
lfingers 7.12502
lthumb 4.25557 42.5062
rfemur -17.3818 -7.81037 12.9422
rtibia 88.7837
rfoot 2.08905 -6.44091
rtoes -2.36325
lfemur -18.9161 -3.68978 -29.5073
ltibia 44.0924
lfoot -20.1599 -6.04174
ltoes 2.31156
96
root 0.0570107 16.6665 7.22408 1.46047 5.25924 5.47436
lowerback 13.062 2.32598 -4.97195
upperback 1.43658 2.36079 -0.163526
thorax -6.0039 1.27561 2.20466
lowerneck -24.9954 -5.09687 -9.26467
upperneck 12.2017 -5.60865 9.93575
head 8.40575 -2.05536 4.09324
rclavicle -3.18055e-014 5.56597e-015
rhumerus -45.7669 5.39007 -92.7243
rradius 118.324
rwrist -15.7811
rhand -8.74756 21.7575
rfingers 7.12502
rthumb 17.1894 -7.5022
lclavicle -3.18055e-014 5.56597e-015
lhumerus -43.9011 -14.3318 93.892
lradius 118.936
lwrist 30.9139
lhand -21.964 12.5104
lfingers 7.12502
lthumb 4.44348 42.4438
rfemur -20.0602 -7.94274 12.1736
rtibia 90.3213
rfoot 1.55654 -6.39287
rtoes -2.57265
lfemur -17.7312 -3.86502 -30.1856
ltibia 44.4295
lfoot -21.5964 -4.69818
ltoes 1.94101
97
root 0.0517132 16.6104 7.57766 1.67433 4.98044 5.45774
lowerback 13.2844 2.19975 -4.78004
upperback 1.24201 2.18853 -0.381207
thorax -6.30526 1.19214 1.88816
lowerneck -24.5825 -5.01111 -9.19795
upperneck 11.8176 -5.5684 10.1777
head 8.21266 -2.02191 4.1694
rclavicle -1.76918e-014 -1.43125e-014
rhumerus -47.0535 5.02915 -93.5328
rradius 118.281
rwrist -15.421
rhand -8.567 21.4273
rfingers 7.12502
rthumb 17.3632 -7.8171
lclavicle -1.76918e-014 -1.43125e-014
lhumerus -42.9221 -14.5659 93.7056
lradius 118.583
lwrist 31.0217
lhand -22.1056 12.6198
lfingers 7.12502
lthumb 4.30681 42.556
rfemur -22.5922 -8.24289 12.2686
rtibia 91.3132
rfoot 0.640004 -6.71314
rtoes -3.0317
lfemur -16.6747 -4.06467 -30.1178
ltibia 44.7176
lfoot -22.8341 -4.13204
ltoes 1.58516
98
root 0.0496211 16.5722 7.92985 1.99067 5.18593 5.01254
lowerback 13.6738 1.81394 -4.00223
upperback 0.766628 1.75027 -0.532575
thorax -6.96974 0.970743 1.3551
lowerneck -24.3586 -4.90808 -9.05356
upperneck 12.0386 -5.55947 10.4195
head 8.2564 -1.99038 4.23493
rclavicle 5.06901e-015 1.19271e-014
rhumerus -48.8269 4.87445 -94.582
rradius 118.37
rwrist -15.2294
rhand -8.41256 21.1099
rfingers 7.12502
rthumb 17.5118 -8.1214
lclavicle 5.06901e-015 1.19271e-014
lhumerus -42.5452 -14.596 93.5465
lradius 118.346
lwrist 30.7367
lhand -22.2665 12.911
lfingers 7.12502
lthumb 4.15146 42.8502
rfemur -25.1913 -8.94299 12.9535
rtibia 91.898
rfoot -0.464825 -7.10932
rtoes -2.94285
lfemur -15.788 -4.50088 -29.5335
ltibia 44.9826
lfoot -23.8649 -3.75392
ltoes -0.708177
99
root 0.0458762 16.5515 8.28189 2.31274 5.34623 4.61518
lowerback 13.7456 1.44115 -3.53634
upperback 0.513185 1.32441 -0.460497
thorax -7.24785 0.756458 1.24811
lowerneck -24.6639 -4.92121 -9.08054
upperneck 12.6049 -5.59648 10.4619
head 8.50478 -1.99152 4.25596
rclavicle 3.8763e-015 -1.03368e-014
rhumerus -49.9954 5.17423 -95.1767
rradius 118.277
rwrist -15.4464
rhand -8.09285 21.1932
rfingers 7.12502
rthumb 17.8195 -8.01033
lclavicle 3.8763e-015 -1.03368e-014
lhumerus -41.9512 -14.2685 93.6445
lradius 118.195
lwrist 30.2745
lhand -22.2774 12.8147
lfingers 7.12502
lthumb 4.14086 42.7542
rfemur -27.7532 -9.60755 13.6777
rtibia 92.088
rfoot -1.03105 -7.39856
rtoes -2.51411
lfemur -14.8665 -4.89425 -29.0119
ltibia 45.1763
lfoot -24.4731 -3.41173
ltoes -3.02315
100
root 0.0364021 16.5517 8.64343 2.72388 5.16117 4.39009
lowerback 13.2049 1.2137 -3.605
upperback 0.600642 1.05499 -0.227631
thorax -6.8431 0.62524 1.59679
lowerneck -25.1231 -4.93375 -9.16793
upperneck 12.7115 -5.52993 10.3458
head 8.60675 -1.96349 4.24052
rclavicle 6.65929e-015 -8.74653e-015
rhumerus -50.5711 5.76521 -95.4326
rradius 118.324
rwrist -15.9908
rhand -7.45006 21.2359
rfingers 7.12502
rthumb 18.4379 -7.91033
lclavicle 6.65929e-015 -8.74653e-015
lhumerus -40.8875 -13.6572 93.8712
lradius 118.136
lwrist 29.7047
lhand -22.3386 12.8752
lfingers 7.12502
lthumb 4.08184 42.8158
rfemur -30.2348 -9.84717 14.3133
rtibia 91.82
rfoot -1.34934 -7.68478
rtoes -2.35691
lfemur -13.9154 -4.95681 -28.7119
ltibia 45.1968
lfoot -24.7021 -3.15249
ltoes -5.05238
101
root 0.0233886 16.5656 9.01402 2.95979 4.7422 4.31289
lowerback 12.917 1.08273 -3.84043
upperback 0.543212 0.866987 -0.0955863
thorax -6.73834 0.542257 1.90824
lowerneck -24.745 -4.78616 -9.11807
upperneck 12.4013 -5.33016 10.2229
head 8.41203 -1.89328 4.21555
rclavicle 1.16786e-014 5.1684e-015
rhumerus -51.6432 6.22371 -95.8394
rradius 118.679
rwrist -16.4943
rhand -6.83819 21.0331
rfingers 7.12502
rthumb 19.0264 -8.05625
lclavicle 1.16786e-014 5.1684e-015
lhumerus -40.2068 -13.1422 94.1483
lradius 118.131
lwrist 29.2907
lhand -22.4749 12.9814
lfingers 7.12502
lthumb 3.95019 42.9245
rfemur -32.3546 -9.72989 14.8145
rtibia 91.1466
rfoot -1.9152 -7.961
rtoes -3.16322
lfemur -12.6873 -4.71997 -28.5755
ltibia 44.9629
lfoot -24.6557 -3.07829
ltoes -6.97831
102
root 0.00785703 16.5987 9.39426 3.07114 4.4295 4.33092
lowerback 12.873 0.899532 -4.17555
upperback 0.431759 0.58382 0.0448159
thorax -6.82023 0.420168 2.29914
lowerneck -24.4376 -4.58442 -9.04341
upperneck 12.2281 -5.04797 9.98522
head 8.26304 -1.79139 4.16019
rclavicle -2.98177e-015 -2.78299e-015
rhumerus -52.6921 6.74912 -96.2045
rradius 118.869
rwrist -16.8137
rhand -6.62924 21.2081
rfingers 7.12502
rthumb 19.2274 -7.86143
lclavicle -2.98177e-015 -2.78299e-015
lhumerus -39.6677 -12.5876 94.5287
lradius 118.169
lwrist 29.0938
lhand -22.6434 12.9304
lfingers 7.12502
lthumb 3.78743 42.8765
rfemur -34.0449 -9.64301 15.24
rtibia 90.0453
rfoot -2.6997 -8.11339
rtoes -4.06953
lfemur -11.2464 -4.63982 -28.5359
ltibia 44.4789
lfoot -24.1224 -3.28976
ltoes -8.81338
103
root -0.00800247 16.6589 9.7833 3.22915 4.18716 4.65536
lowerback 12.5484 0.678349 -4.88196
upperback 0.612268 0.21942 0.187876
thorax -6.42365 0.254617 2.91842
lowerneck -25.1835 -4.40588 -8.88156
upperneck 12.4702 -4.73281 9.56567
head 8.41571 -1.65822 4.03702
rclavicle -1.0138e-014 -4.37326e-015
rhumerus -53.1144 7.43861 -96.3418
rradius 119.064
rwrist -17.362
rhand -6.2707 21.5129
rfingers 7.12502
rthumb 19.5721 -7.5219
lclavicle -1.0138e-014 -4.37326e-015
lhumerus -38.713 -11.8858 94.8031
lradius 118.328
lwrist 29.04
lhand -22.528 12.5085
lfingers 7.12502
lthumb 3.89893 42.4526
rfemur -35.5667 -9.65693 15.3421
rtibia 88.5158
rfoot -3.34118 -8.17016
rtoes -5.98325
lfemur -9.73923 -4.74725 -28.8601
ltibia 43.8165
lfoot -23.1803 -3.5702
ltoes -10.0694
104
root -0.0231719 16.7303 10.1796 3.41366 4.04932 4.93412
lowerback 12.0963 0.401791 -5.31875
upperback 0.762539 -0.177527 0.187845
thorax -5.97485 0.058082 3.23286
lowerneck -25.758 -4.25164 -8.68824
upperneck 12.7225 -4.51937 9.36023
head 8.5627 -1.55448 3.96946
rclavicle 3.08116e-015 -4.77083e-015
rhumerus -53.5496 7.88564 -96.6924
rradius 119.297
rwrist -17.9417
rhand -5.89198 22.1392
rfingers 7.12502
rthumb 19.9362 -6.85815
lclavicle 3.08116e-015 -4.77083e-015
lhumerus -37.9011 -11.3945 94.8836
lradius 118.565
lwrist 29.0884
lhand -22.4769 12.6481
lfingers 7.12502
lthumb 3.94829 42.5913
rfemur -36.9091 -9.64515 15.4927
rtibia 86.6018
rfoot -3.99615 -8.29041
rtoes -7.07511
lfemur -8.16084 -4.91682 -29.1232
ltibia 43.0489
lfoot -21.6054 -4.11476
ltoes -11.1346
105
root -0.0337794 16.798 10.5747 3.61402 3.95218 5.15763
lowerback 11.6298 0.110948 -5.5402
upperback 0.819498 -0.56548 0.131369
thorax -5.61485 -0.138721 3.35771
lowerneck -25.7678 -4.0637 -8.37552
upperneck 12.6483 -4.31194 9.07473
head 8.50308 -1.472 3.84838
rclavicle 1.40143e-014 -2.18663e-014
rhumerus -54.1924 8.22444 -97.1397
rradius 119.537
rwrist -18.258
rhand -5.87268 22.4979
rfingers 7.12502
rthumb 19.9547 -6.49755
lclavicle 1.40143e-014 -2.18663e-014
lhumerus -37.3715 -11.0264 94.9357
lradius 118.785
lwrist 29.5034
lhand -22.4628 12.7994
lfingers 7.12502
lthumb 3.96189 42.7423
rfemur -38.0083 -9.51255 15.6568
rtibia 84.3017
rfoot -4.81977 -8.20118
rtoes -7.85286
lfemur -6.59109 -4.96598 -29.3095
ltibia 42.1942
lfoot -19.3071 -5.03332
ltoes -11.8397
106
root -0.0385787 16.8788 10.9761 3.80714 3.71348 5.17801
lowerback 11.2754 -0.14958 -5.5769
upperback 0.701015 -0.893286 0.201454
thorax -5.50781 -0.298956 3.50002
lowerneck -25.617 -3.81955 -8.15336
upperneck 12.6536 -4.00109 8.72177
head 8.43634 -1.35635 3.73485
rclavicle 6.36111e-015 -1.90833e-014
rhumerus -55.1312 8.49256 -97.4285
rradius 119.817
rwrist -18.6508
rhand -5.59819 22.7037
rfingers 7.12502
rthumb 20.2186 -6.264
lclavicle 6.36111e-015 -1.90833e-014
lhumerus -37.2242 -10.5413 95.1315
lradius 118.963
lwrist 29.9559
lhand -22.3936 12.4033
lfingers 7.12502
lthumb 4.02871 42.3449
rfemur -38.8444 -9.16399 16.0207
rtibia 81.5832
rfoot -5.64218 -7.98694
rtoes -10.5126
lfemur -5.045 -4.9584 -29.2945
ltibia 41.2421
lfoot -17.2286 -5.46575
ltoes -17.5818
107
root -0.0383387 16.978 11.3899 3.87095 3.51442 4.90374
lowerback 11.1813 -0.407796 -5.24953
upperback 0.523187 -1.18427 0.375314
thorax -5.61622 -0.441347 3.54381
lowerneck -25.8395 -3.63998 -8.11836
upperneck 13.0836 -3.72305 8.44273
head 8.58571 -1.24828 3.67932
rclavicle 1.11319e-014 1.07344e-014
rhumerus -56.2019 8.62975 -97.5632
rradius 120.181
rwrist -19.0157
rhand -5.10071 22.735
rfingers 7.12502
rthumb 20.6966 -6.18137
lclavicle 1.11319e-014 1.07344e-014
lhumerus -37.1792 -10.2639 95.3953
lradius 119.2
lwrist 30.4768
lhand -22.3874 12.2933
lfingers 7.12502
lthumb 4.03464 42.2348
rfemur -39.2403 -8.82457 16.6423
rtibia 78.458
rfoot -6.35089 -7.59493
rtoes -13.2349
lfemur -3.33378 -5.03077 -28.9807
ltibia 40.1812
lfoot -14.7933 -6.3089
ltoes -19.7059
108
root -0.0460271 17.0834 11.8074 4.0039 3.10307 4.54897
lowerback 11.0953 -0.577134 -4.95918
upperback 0.272953 -1.36167 0.592655
thorax -5.8163 -0.522744 3.63827
lowerneck -25.8588 -3.48183 -8.15161
upperneck 13.3987 -3.47442 8.25098
head 8.67024 -1.1539 3.65932
rclavicle -5.66536e-015 6.75868e-015
rhumerus -57.2756 8.68026 -97.571
rradius 120.519
rwrist -19.1029
rhand -4.65389 22.7426
rfingers 7.12502
rthumb 21.1259 -6.1265
lclavicle -5.66536e-015 6.75868e-015
lhumerus -37.3378 -10.0624 95.6787
lradius 119.495
lwrist 31.0692
lhand -22.4271 12.6254
lfingers 7.12502
lthumb 3.99636 42.5677
rfemur -39.5883 -8.11649 17.393
rtibia 75.0324
rfoot -6.28741 -7.06
rtoes -12.7908
lfemur -1.79089 -4.82787 -28.5098
ltibia 39.0246
lfoot -11.9986 -7.43474
ltoes -20.9183
109
root -0.0590398 17.1863 12.2303 4.22923 2.28123 4.38067
lowerback 10.6213 -0.554759 -4.95017
upperback 0.0586346 -1.30493 0.698253
thorax -5.77996 -0.490961 3.72759
lowerneck -25.3541 -3.30598 -8.02759
upperneck 13.2915 -3.2709 8.04374
head 8.52615 -1.08519 3.59355
rclavicle 1.48095e-014 -7.95139e-015
rhumerus -58.2471 8.60436 -97.5984
rradius 120.565
rwrist -19.1912
rhand -4.46371 23.0884
rfingers 7.12502
rthumb 21.3086 -5.7601
lclavicle 1.48095e-014 -7.95139e-015
lhumerus -37.7459 -9.9637 95.9227
lradius 119.68
lwrist 31.3436
lhand -22.2671 12.0971
lfingers 7.12502
lthumb 4.15086 42.0364
rfemur -39.9144 -6.92804 17.8739
rtibia 71.3993
rfoot -6.29297 -6.38389
rtoes -12.0179
lfemur -0.499275 -4.30054 -28.2517
ltibia 37.8096
lfoot -8.61183 -8.6406
ltoes -22.4571
